{"title":"Shameless Season 1 Complete MP4","uid":9705189,"size":5660689837,"categoryP":"video","categoryS":"tv_shows","magnet":"?xt=urn:btih:52ba6d1828c64abeeb14eb1a076b22c39202a31b&amp;dn=Shameless+Season+1+Complete+MP4&amp;tr=udp%3A%2F%2Ftracker.openbittorrent.com%3A80&amp;tr=udp%3A%2F%2Fopen.demonii.com%3A1337&amp;tr=udp%3A%2F%2Ftracker.coppersurfer.tk%3A6969&amp;tr=udp%3A%2F%2Fexodus.desync.com%3A6969","seeders":4,"leechers":0,"uploader":"PapaFatHead","files":12,"time":1394053355,"description":"Meet the fabulously dysfunctional Gallagher family. Dad's a drunk, Mom split long ago, eldest daughter Fiona tries to hold the family together. Eldest son Philip (Lip) trades his physics tutoring skills for sexual favors from neighborhood girls. Middle son Ian is gay. Youngest daughter Debbie is stealing money from her UNICEF collection. Ten-year-old Carl is a budding sociopath and an arsonist, and toddler Liam is - well, he might actually be black, but nobody has a clue how.\n\nGeneral\nComplete name                  : Shameless Season 1 Complete MP4\nFormat                         : MPEG-4\nFormat profile                 : Base Media / Version 2\nCodec ID                       : mp42\n\n\nOverall bit rate mode          : Variable\nOverall bit rate               : 1 136 Kbps\n\n\nVideo\nID                             : 1\nFormat                         : AVC\nFormat/Info                    : Advanced Video Codec\nFormat profile                 : &lt;a class=&quot;__cf_email__&quot; href=&quot;/cdn-cgi/l/email-protection&quot; data-cfemail=&quot;b6f4d7c5d3dadfd8d3f6fa859886&quot;&gt;[email&amp;#160;protected]&lt;/a&gt;&lt;script cf-hash='f9e31' type=&quot;text/javascript&quot;&gt;\n/* &lt;![CDATA[ */!function(){try{var t=&quot;currentScript&quot;in document?document.currentScript:function(){for(var t=document.getElementsByTagName(&quot;script&quot;),e=t.length;e--;)if(t[e].getAttribute(&quot;cf-hash&quot;))return t[e]}();if(t&amp;&amp;t.previousSibling){var e,r,n,i,c=t.previousSibling,a=c.getAttribute(&quot;data-cfemail&quot;);if(a){for(e=&quot;&quot;,r=parseInt(a.substr(0,2),16),n=2;a.length-n;n+=2)i=parseInt(a.substr(n,2),16)^r,e+=String.fromCharCode(i);e=document.createTextNode(e),c.parentNode.replaceChild(e,c)}}}catch(u){}}();/* ]]&gt; */&lt;/script&gt;\nFormat settings, CABAC         : No\nFormat settings, ReFrames      : 2 frames\nCodec ID                       : avc1\nCodec ID/Info                  : Advanced Video Coding\n\nBit rate                       : 972 Kbps\nWidth                          : 852 pixels\nHeight                         : 480 pixels\nDisplay aspect ratio           : 16:9\nOriginal display aspect ratio  : 16:9\nFrame rate mode                : Variable\nFrame rate                     : 23.976 fps\nMinimum frame rate             : 23.810 fps\nMaximum frame rate             : 30.000 fps\nColor space                    : YUV\nChroma subsampling             : 4:2:0\nBit depth                      : 8 bits\nScan type                      : Progressive\nBits/(Pixel*Frame)             : 0.099\nStream size                    : 356 MiB (86%)\nWriting library                : x264 core 130 r2273 b3065e6\n\n\nAudio\nID                             : 2\nFormat                         : AAC\nFormat/Info                    : Advanced Audio Codec\nFormat profile                 : LC\nCodec ID                       : 40\n\nBit rate mode                  : Variable\nBit rate                       : 160 Kbps\nMaximum bit rate               : 217 Kbps\nChannel(s)                     : 2 channels\nChannel positions              : Front: L R\nSampling rate                  : 48.0 KHz\nCompression mode               : Lossy\nStream size                    : 58.6 MiB (14%)\n\n\n","torrent":{"xt":"urn:btih:52ba6d1828c64abeeb14eb1a076b22c39202a31b","amp;dn":"Shameless+Season+1+Complete+MP4","amp;tr":["udp%3A%2F%2Ftracker.openbittorrent.com%3A80","udp%3A%2F%2Fopen.demonii.com%3A1337","udp%3A%2F%2Ftracker.coppersurfer.tk%3A6969","udp%3A%2F%2Fexodus.desync.com%3A6969"],"infoHash":"52ba6d1828c64abeeb14eb1a076b22c39202a31b","infoHashBuffer":{"type":"Buffer","data":[82,186,109,24,40,198,74,190,235,20,235,26,7,107,34,195,146,2,163,27]},"announce":[],"urlList":[]}}